# xmcd
#
# Track frame offsets:
#	150
#	15930
#	27969
#	42994
#	56621
#	66687
#	78460
#	94844
#	109753
#	121220
#	133376
#	152000
#	164303
#	173667
#	183896
#	198477
#	203028
#	214055
#	226116
#
# Disc length: 3200 seconds
#
# Revision: 2
# Processed by: cddbd v1.5.2PL0 Copyright (c) Steve Scherf et al.
# Submitted via: EZCDAudioConverter 2.1.7.1
#
DISCID=010c7e13
DTITLE=V/A - Eccentric Soul: The Prix Label
DYEAR=2007
DGENRE=
TTITLE0=Eddie Ray - Wait A Minute
TTITLE1=OFS Unlimited - Mystic
TTITLE2=Mitch Mitchell and Gene King - Never Walk Out On You
TTITLE3=Joe King - Speak On Up
TTITLE4=Royal Esquires - Ain't Gonna Run
TTITLE5=Eddie Ray - You Got Me
TTITLE6=Chip Willis and Double Exposure - I'm Gonna Gitcha
TTITLE7=Mitch Mitchell - Can't Get A Nuff
TTITLE8=Soul Ensemble - Melon Jelly
TTITLE9=Eddie Ray - Glad I Found You
TTITLE10=Marion Black - Listen Black Brother
TTITLE11=Royal Esquires - Our Love Used To Be
TTITLE12=OFS Unlimited - Mister Kidneys
TTITLE13=Marion Black - Come On And Gettit
TTITLE14=Joe King - You're My Everything
TTITLE15=Harmonic Sounds Band - Untitled Studio Moves
TTITLE16=Eddie Ray - You Got Me [Demo]
TTITLE17=Penny and The Quarters - You And Me
TTITLE18=Eddie Ray - You Are Mine
EXTD=
EXTT0=
EXTT1=
EXTT2=
EXTT3=
EXTT4=
EXTT5=
EXTT6=
EXTT7=
EXTT8=
EXTT9=
EXTT10=
EXTT11=
EXTT12=
EXTT13=
EXTT14=
EXTT15=
EXTT16=
EXTT17=
EXTT18=
PLAYORDER=
